<?xml version="1.0" encoding="UTF-8"?>
<svg xmlns="http://www.w3.org/2000/svg" version="1.1" width="175" height="175" viewBox="0 0 175 175"><rect x="0" y="0" width="175" height="175" fill="#ffffff"/><g transform="scale(6.034)"><g transform="translate(0,0)"><path fill-rule="evenodd" d="M9 0L9 1L8 1L8 3L9 3L9 4L8 4L8 8L6 8L6 9L8 9L8 8L10 8L10 10L9 10L9 11L8 11L8 12L6 12L6 11L7 11L7 10L5 10L5 9L4 9L4 8L3 8L3 9L2 9L2 8L0 8L0 9L1 9L1 10L3 10L3 9L4 9L4 11L2 11L2 12L4 12L4 13L5 13L5 14L4 14L4 15L3 15L3 16L0 16L0 17L1 17L1 18L0 18L0 19L1 19L1 18L3 18L3 16L4 16L4 18L5 18L5 19L7 19L7 20L4 20L4 19L2 19L2 21L7 21L7 20L8 20L8 23L9 23L9 19L10 19L10 18L11 18L11 17L12 17L12 16L13 16L13 17L16 17L16 18L17 18L17 19L15 19L15 20L14 20L14 18L13 18L13 20L12 20L12 19L11 19L11 22L10 22L10 23L11 23L11 24L9 24L9 25L8 25L8 26L9 26L9 27L8 27L8 29L10 29L10 28L12 28L12 29L14 29L14 28L12 28L12 24L14 24L14 25L13 25L13 27L15 27L15 24L14 24L14 23L15 23L15 22L14 22L14 21L16 21L16 23L18 23L18 24L16 24L16 26L17 26L17 27L16 27L16 28L15 28L15 29L16 29L16 28L17 28L17 29L19 29L19 28L20 28L20 29L25 29L25 27L27 27L27 29L28 29L28 27L29 27L29 26L28 26L28 25L29 25L29 23L28 23L28 22L29 22L29 21L27 21L27 20L29 20L29 17L28 17L28 15L29 15L29 14L25 14L25 16L26 16L26 15L27 15L27 17L28 17L28 18L27 18L27 20L26 20L26 22L27 22L27 23L25 23L25 20L21 20L21 19L20 19L20 21L19 21L19 22L20 22L20 25L22 25L22 26L23 26L23 25L24 25L24 28L23 28L23 27L22 27L22 28L21 28L21 27L20 27L20 26L19 26L19 27L18 27L18 26L17 26L17 25L18 25L18 24L19 24L19 23L18 23L18 22L17 22L17 21L16 21L16 20L19 20L19 18L17 18L17 17L18 17L18 15L16 15L16 16L15 16L15 15L13 15L13 12L12 12L12 13L9 13L9 14L8 14L8 12L9 12L9 11L11 11L11 10L12 10L12 9L11 9L11 8L10 8L10 7L11 7L11 6L12 6L12 8L13 8L13 6L14 6L14 8L16 8L16 7L17 7L17 8L19 8L19 9L18 9L18 12L17 12L17 9L16 9L16 11L14 11L14 12L17 12L17 13L19 13L19 14L20 14L20 15L19 15L19 16L20 16L20 18L22 18L22 19L24 19L24 16L23 16L23 14L24 14L24 13L23 13L23 12L25 12L25 13L26 13L26 12L27 12L27 13L29 13L29 12L28 12L28 10L29 10L29 9L28 9L28 8L26 8L26 9L25 9L25 8L22 8L22 10L23 10L23 9L25 9L25 11L23 11L23 12L20 12L20 10L21 10L21 9L20 9L20 8L21 8L21 6L20 6L20 5L19 5L19 3L21 3L21 2L19 2L19 3L18 3L18 2L17 2L17 3L14 3L14 4L13 4L13 6L12 6L12 5L11 5L11 6L10 6L10 5L9 5L9 4L12 4L12 3L13 3L13 2L14 2L14 1L15 1L15 2L16 2L16 0L14 0L14 1L13 1L13 0L12 0L12 1L11 1L11 2L9 2L9 1L10 1L10 0ZM17 0L17 1L20 1L20 0ZM17 3L17 5L16 5L16 6L15 6L15 5L14 5L14 6L15 6L15 7L16 7L16 6L17 6L17 7L18 7L18 3ZM9 6L9 7L10 7L10 6ZM19 6L19 7L20 7L20 6ZM19 9L19 10L20 10L20 9ZM26 9L26 10L28 10L28 9ZM25 11L25 12L26 12L26 11ZM0 12L0 14L1 14L1 15L2 15L2 14L3 14L3 13L1 13L1 12ZM6 13L6 14L5 14L5 15L4 15L4 16L5 16L5 17L6 17L6 18L7 18L7 19L8 19L8 18L7 18L7 17L10 17L10 14L9 14L9 15L8 15L8 14L7 14L7 13ZM21 13L21 15L22 15L22 14L23 14L23 13ZM6 14L6 15L5 15L5 16L6 16L6 17L7 17L7 16L6 16L6 15L7 15L7 14ZM11 14L11 16L12 16L12 14ZM16 16L16 17L17 17L17 16ZM22 16L22 17L23 17L23 16ZM25 17L25 18L26 18L26 17ZM0 20L0 21L1 21L1 20ZM13 20L13 21L14 21L14 20ZM21 21L21 24L24 24L24 21ZM22 22L22 23L23 23L23 22ZM25 24L25 25L27 25L27 24ZM9 25L9 26L10 26L10 27L11 27L11 26L10 26L10 25ZM27 26L27 27L28 27L28 26ZM0 0L0 7L7 7L7 0ZM1 1L1 6L6 6L6 1ZM2 2L2 5L5 5L5 2ZM22 0L22 7L29 7L29 0ZM23 1L23 6L28 6L28 1ZM24 2L24 5L27 5L27 2ZM0 22L0 29L7 29L7 22ZM1 23L1 28L6 28L6 23ZM2 24L2 27L5 27L5 24Z" fill="#000000"/></g></g></svg>
