<?xml version="1.0" encoding="UTF-8"?>
<svg xmlns="http://www.w3.org/2000/svg" version="1.1" width="175" height="175" viewBox="0 0 175 175"><rect x="0" y="0" width="175" height="175" fill="#ffffff"/><g transform="scale(5.303)"><g transform="translate(0,0)"><path fill-rule="evenodd" d="M8 0L8 1L9 1L9 2L8 2L8 5L9 5L9 4L11 4L11 5L10 5L10 10L9 10L9 11L7 11L7 10L6 10L6 11L5 11L5 9L4 9L4 8L0 8L0 9L4 9L4 11L2 11L2 12L0 12L0 16L3 16L3 17L1 17L1 20L2 20L2 21L3 21L3 23L1 23L1 24L0 24L0 25L1 25L1 24L3 24L3 23L5 23L5 24L4 24L4 25L7 25L7 24L6 24L6 23L8 23L8 22L9 22L9 20L12 20L12 19L11 19L11 18L10 18L10 16L9 16L9 15L11 15L11 16L12 16L12 17L13 17L13 16L12 16L12 14L13 14L13 15L14 15L14 18L13 18L13 21L19 21L19 22L20 22L20 23L18 23L18 24L17 24L17 22L16 22L16 23L15 23L15 22L14 22L14 23L10 23L10 25L9 25L9 24L8 24L8 26L9 26L9 28L10 28L10 31L9 31L9 29L8 29L8 33L14 33L14 32L13 32L13 30L14 30L14 29L12 29L12 28L14 28L14 27L15 27L15 26L16 26L16 27L17 27L17 25L19 25L19 26L18 26L18 27L20 27L20 28L18 28L18 30L19 30L19 29L20 29L20 31L19 31L19 32L18 32L18 31L17 31L17 30L16 30L16 29L15 29L15 31L17 31L17 32L16 32L16 33L19 33L19 32L20 32L20 31L21 31L21 29L22 29L22 30L23 30L23 31L22 31L22 32L21 32L21 33L22 33L22 32L25 32L25 33L26 33L26 32L27 32L27 33L31 33L31 32L27 32L27 30L25 30L25 29L29 29L29 31L31 31L31 30L30 30L30 29L32 29L32 30L33 30L33 27L31 27L31 26L29 26L29 24L30 24L30 23L31 23L31 24L32 24L32 25L33 25L33 24L32 24L32 23L33 23L33 21L31 21L31 20L30 20L30 18L31 18L31 19L32 19L32 20L33 20L33 19L32 19L32 18L33 18L33 16L31 16L31 14L32 14L32 13L30 13L30 12L29 12L29 11L27 11L27 9L26 9L26 8L25 8L25 6L24 6L24 7L23 7L23 4L24 4L24 5L25 5L25 1L24 1L24 0L23 0L23 3L22 3L22 5L21 5L21 6L20 6L20 4L21 4L21 2L22 2L22 0L19 0L19 1L20 1L20 2L18 2L18 3L17 3L17 1L16 1L16 0L12 0L12 1L11 1L11 0L10 0L10 1L9 1L9 0ZM14 1L14 2L11 2L11 4L12 4L12 3L13 3L13 5L12 5L12 6L11 6L11 8L12 8L12 6L13 6L13 8L14 8L14 9L15 9L15 7L16 7L16 6L15 6L15 5L16 5L16 4L17 4L17 5L19 5L19 4L20 4L20 3L19 3L19 4L17 4L17 3L16 3L16 1ZM14 3L14 5L13 5L13 6L14 6L14 7L15 7L15 6L14 6L14 5L15 5L15 4L16 4L16 3ZM8 6L8 7L9 7L9 6ZM17 6L17 7L18 7L18 6ZM19 6L19 7L20 7L20 8L19 8L19 9L21 9L21 10L19 10L19 11L18 11L18 10L17 10L17 8L16 8L16 10L14 10L14 11L11 11L11 13L10 13L10 14L11 14L11 13L12 13L12 12L13 12L13 14L14 14L14 15L15 15L15 16L16 16L16 17L15 17L15 18L16 18L16 17L17 17L17 18L18 18L18 20L19 20L19 21L21 21L21 20L24 20L24 22L25 22L25 23L24 23L24 24L22 24L22 23L23 23L23 22L21 22L21 23L20 23L20 24L19 24L19 25L20 25L20 26L21 26L21 25L22 25L22 27L23 27L23 25L24 25L24 24L28 24L28 22L29 22L29 23L30 23L30 22L31 22L31 21L30 21L30 20L27 20L27 19L28 19L28 18L26 18L26 17L25 17L25 16L27 16L27 17L28 17L28 15L29 15L29 16L30 16L30 14L29 14L29 13L28 13L28 12L26 12L26 10L25 10L25 8L23 8L23 9L21 9L21 8L22 8L22 6L21 6L21 7L20 7L20 6ZM6 8L6 9L7 9L7 8ZM8 8L8 9L9 9L9 8ZM28 8L28 9L30 9L30 11L31 11L31 12L32 12L32 11L33 11L33 8L32 8L32 9L31 9L31 8ZM11 9L11 10L12 10L12 9ZM23 9L23 10L21 10L21 11L19 11L19 12L21 12L21 11L23 11L23 13L22 13L22 14L23 14L23 13L25 13L25 14L24 14L24 15L25 15L25 14L26 14L26 12L25 12L25 10L24 10L24 9ZM16 10L16 12L14 12L14 14L15 14L15 15L16 15L16 16L17 16L17 14L18 14L18 12L17 12L17 10ZM6 11L6 12L5 12L5 13L4 13L4 15L3 15L3 16L5 16L5 14L8 14L8 15L9 15L9 14L8 14L8 13L6 13L6 12L7 12L7 11ZM2 12L2 13L1 13L1 15L2 15L2 13L3 13L3 12ZM16 12L16 13L15 13L15 14L16 14L16 13L17 13L17 12ZM19 13L19 16L18 16L18 18L19 18L19 17L20 17L20 19L19 19L19 20L20 20L20 19L21 19L21 18L22 18L22 19L23 19L23 18L25 18L25 17L22 17L22 16L23 16L23 15L20 15L20 13ZM27 13L27 15L28 15L28 13ZM6 15L6 16L7 16L7 17L5 17L5 18L4 18L4 17L3 17L3 19L2 19L2 20L4 20L4 22L5 22L5 19L6 19L6 20L7 20L7 21L6 21L6 22L8 22L8 19L9 19L9 16L7 16L7 15ZM7 17L7 18L6 18L6 19L8 19L8 17ZM31 17L31 18L32 18L32 17ZM24 19L24 20L25 20L25 19ZM0 21L0 22L1 22L1 21ZM10 21L10 22L11 22L11 21ZM26 21L26 23L27 23L27 21ZM29 21L29 22L30 22L30 21ZM12 24L12 26L11 26L11 25L10 25L10 26L11 26L11 28L12 28L12 26L13 26L13 27L14 27L14 26L15 26L15 24ZM20 24L20 25L21 25L21 24ZM13 25L13 26L14 26L14 25ZM25 25L25 28L28 28L28 25ZM26 26L26 27L27 27L27 26ZM11 29L11 30L12 30L12 29ZM23 29L23 30L24 30L24 31L25 31L25 32L26 32L26 31L25 31L25 30L24 30L24 29ZM11 31L11 32L12 32L12 31ZM32 31L32 32L33 32L33 31ZM0 0L0 7L7 7L7 0ZM1 1L1 6L6 6L6 1ZM2 2L2 5L5 5L5 2ZM26 0L26 7L33 7L33 0ZM27 1L27 6L32 6L32 1ZM28 2L28 5L31 5L31 2ZM0 26L0 33L7 33L7 26ZM1 27L1 32L6 32L6 27ZM2 28L2 31L5 31L5 28Z" fill="#000000"/></g></g></svg>
