<?xml version="1.0" encoding="UTF-8"?>
<svg xmlns="http://www.w3.org/2000/svg" version="1.1" width="175" height="175" viewBox="0 0 175 175"><rect x="0" y="0" width="175" height="175" fill="#ffffff"/><g transform="scale(6.034)"><g transform="translate(0,0)"><path fill-rule="evenodd" d="M9 0L9 1L8 1L8 2L9 2L9 3L8 3L8 4L10 4L10 7L11 7L11 8L6 8L6 9L8 9L8 10L9 10L9 12L8 12L8 11L7 11L7 10L6 10L6 11L5 11L5 13L4 13L4 14L3 14L3 13L2 13L2 11L3 11L3 10L5 10L5 8L0 8L0 10L1 10L1 9L3 9L3 10L2 10L2 11L1 11L1 14L0 14L0 15L2 15L2 14L3 14L3 15L4 15L4 17L3 17L3 16L1 16L1 17L0 17L0 21L1 21L1 18L2 18L2 21L3 21L3 18L4 18L4 20L5 20L5 21L7 21L7 20L8 20L8 23L9 23L9 22L12 22L12 23L14 23L14 24L13 24L13 25L16 25L16 26L12 26L12 25L11 25L11 23L10 23L10 25L11 25L11 26L12 26L12 27L11 27L11 28L12 28L12 29L14 29L14 28L15 28L15 27L16 27L16 29L20 29L20 28L21 28L21 29L22 29L22 28L21 28L21 27L20 27L20 25L23 25L23 26L22 26L22 27L23 27L23 29L27 29L27 28L28 28L28 26L29 26L29 25L28 25L28 24L26 24L26 25L25 25L25 23L27 23L27 22L29 22L29 20L28 20L28 19L27 19L27 16L28 16L28 15L27 15L27 14L25 14L25 13L27 13L27 12L28 12L28 11L27 11L27 12L26 12L26 11L25 11L25 13L24 13L24 14L23 14L23 13L21 13L21 14L20 14L20 12L21 12L21 11L23 11L23 12L24 12L24 11L23 11L23 10L25 10L25 9L26 9L26 8L25 8L25 9L24 9L24 8L23 8L23 9L22 9L22 8L21 8L21 9L19 9L19 10L21 10L21 11L19 11L19 13L18 13L18 12L16 12L16 10L17 10L17 11L18 11L18 10L17 10L17 9L18 9L18 8L17 8L17 6L18 6L18 7L19 7L19 8L20 8L20 7L21 7L21 4L20 4L20 3L21 3L21 0L17 0L17 1L20 1L20 2L19 2L19 3L17 3L17 4L16 4L16 5L15 5L15 3L16 3L16 1L15 1L15 0L13 0L13 1L11 1L11 2L10 2L10 0ZM13 1L13 2L12 2L12 3L13 3L13 5L12 5L12 4L11 4L11 3L10 3L10 4L11 4L11 7L12 7L12 6L13 6L13 8L11 8L11 9L10 9L10 11L11 11L11 12L10 12L10 13L6 13L6 14L5 14L5 18L7 18L7 19L5 19L5 20L7 20L7 19L8 19L8 20L9 20L9 21L10 21L10 20L12 20L12 21L13 21L13 22L16 22L16 23L15 23L15 24L16 24L16 23L17 23L17 24L18 24L18 25L20 25L20 24L19 24L19 23L17 23L17 22L18 22L18 21L19 21L19 22L20 22L20 20L23 20L23 18L22 18L22 17L23 17L23 16L22 16L22 14L21 14L21 16L20 16L20 14L19 14L19 15L18 15L18 13L17 13L17 14L16 14L16 15L15 15L15 13L14 13L14 11L13 11L13 8L16 8L16 6L17 6L17 5L16 5L16 6L15 6L15 7L14 7L14 3L15 3L15 1ZM8 5L8 7L9 7L9 5ZM18 5L18 6L19 6L19 7L20 7L20 5ZM27 8L27 9L28 9L28 10L29 10L29 9L28 9L28 8ZM11 9L11 10L12 10L12 9ZM14 9L14 10L15 10L15 9ZM21 9L21 10L22 10L22 9ZM6 11L6 12L7 12L7 11ZM10 13L10 14L9 14L9 15L10 15L10 16L8 16L8 17L9 17L9 19L10 19L10 18L13 18L13 19L14 19L14 21L15 21L15 20L16 20L16 21L18 21L18 20L20 20L20 19L18 19L18 20L17 20L17 17L18 17L18 16L17 16L17 15L16 15L16 16L15 16L15 15L14 15L14 13ZM28 13L28 14L29 14L29 13ZM6 14L6 15L7 15L7 14ZM11 14L11 15L13 15L13 16L10 16L10 17L13 17L13 18L15 18L15 17L14 17L14 15L13 15L13 14ZM24 14L24 15L25 15L25 16L24 16L24 17L25 17L25 18L24 18L24 19L25 19L25 21L26 21L26 20L27 20L27 19L26 19L26 17L25 17L25 16L27 16L27 15L25 15L25 14ZM6 16L6 17L7 17L7 16ZM16 16L16 17L17 17L17 16ZM19 17L19 18L21 18L21 17ZM28 17L28 18L29 18L29 17ZM21 21L21 24L24 24L24 21ZM22 22L22 23L23 23L23 22ZM8 24L8 29L10 29L10 28L9 28L9 24ZM24 25L24 26L25 26L25 25ZM27 25L27 26L28 26L28 25ZM17 26L17 28L18 28L18 26ZM12 27L12 28L14 28L14 27ZM24 27L24 28L25 28L25 27ZM26 27L26 28L27 28L27 27ZM0 0L0 7L7 7L7 0ZM1 1L1 6L6 6L6 1ZM2 2L2 5L5 5L5 2ZM22 0L22 7L29 7L29 0ZM23 1L23 6L28 6L28 1ZM24 2L24 5L27 5L27 2ZM0 22L0 29L7 29L7 22ZM1 23L1 28L6 28L6 23ZM2 24L2 27L5 27L5 24Z" fill="#000000"/></g></g></svg>
